<svg enable-background="new 0 0 272 48" height="48" viewBox="0 0 272 48" width="272" xmlns="http://www.w3.org/2000/svg"><path d="m84.4 12.8h11.6v3.9h-7.6v3.9h7.6v3.9h-7.6v5.6h7.6v3.9h-11.6z" fill="#fff"/><path d="m103.8 12.8h4.8c3.1 0 5.3.3 6.9 1.1 1.5.8 2.8 2 3.7 3.7s1.5 3.7 1.5 6c0 1.5-.3 3.1-.9 4.5-.5 1.4-1.3 2.5-2.2 3.4s-2 1.5-3.1 1.9-3 .5-5.8.5h-4.8zm4 3.9v13.3h1.9c1.8 0 3.2-.2 4-.6.9-.4 1.5-1.1 2.1-2.1.5-1 .8-2.2.8-3.7 0-2.2-.6-3.9-1.9-5.2-1.1-1.1-2.9-1.6-5.5-1.6h-1.4z" fill="#fff"/><path d="m146.2 16.7-2.8 2.8c-1.8-1.9-3.9-2.8-6.3-2.8-2.1 0-3.9.7-5.2 2.1-1.4 1.4-2.1 3.1-2.1 5 0 2.1.7 3.8 2.1 5.1 1.5 1.5 3.3 2.1 5.4 2.1 1.4 0 2.6-.3 3.5-.9s1.7-1.5 2.3-2.7h-6.1v-3.8h10.7v.9c0 1.9-.5 3.7-1.5 5.2-.9 1.6-2.2 2.9-3.7 3.8s-3.4 1.3-5.4 1.3c-2.2 0-4.1-.5-5.8-1.5s-3.2-2.4-4.1-4.1c-1-1.7-1.5-3.7-1.5-5.6 0-2.8.9-5.2 2.8-7.3 2.2-2.4 5.1-3.7 8.6-3.7 1.8 0 3.5.3 5.2 1 1.3.7 2.6 1.7 3.9 3.1z" fill="#fff"/><path d="m154.2 13.3h11.6v3.9h-7.6v3.9h7.6v3.9h-7.6v5.6h7.6v3.9h-11.6z" fill="#fff"/><g fill="#00da63"><path d="m180.8 13.3h4.8c3.1 0 5.3.3 6.9 1.1 1.5.8 2.8 2 3.7 3.7s1.5 3.7 1.5 6c0 1.5-.3 3.1-.8 4.5s-1.3 2.5-2.2 3.4-2 1.5-3.1 1.9c-1.1.3-3 .5-5.8.5h-4.8zm4 3.8v13.3h1.9c1.8 0 3.2-.2 4-.6.9-.4 1.5-1.1 2.1-2.1.5-1 .8-2.2.8-3.7 0-2.2-.6-3.9-1.9-5.2-1.1-1.1-2.9-1.6-5.4-1.6z"/><path d="m203 13.3h11.6v3.9h-7.6v3.9h7.6v3.9h-7.6v5.6h7.6v3.9h-11.6z"/><path d="m222.4 13.3h4v17.3h5.8v3.8h-9.9v-21.1z"/><path d="m237.2 13.3h11.7v3.9h-3.9v17.1h-4.1v-17.1h-3.8z"/><path d="m259.7 13.3h4.1l8.2 21.1h-4.3l-1.6-4.4h-8.7l-1.7 4.4h-4.2zm2.1 5.5-2.8 7.3h5.7z"/></g><path clip-rule="evenodd" d="m9.6 46.4 5.4-9.1h-15v10.7h8.7z" fill="#fff" fill-rule="evenodd"/><path clip-rule="evenodd" d="m26.4 18.2h-26.4v10.5h20.2z" fill="#fff" fill-rule="evenodd"/><path clip-rule="evenodd" d="m37.1 0h-37.1v10.5h30.9z" fill="#fff" fill-rule="evenodd"/><path d="m47.2 0-28.5 48h56.8zm-.1 18.4 11.3 19.1h-22.6z" fill="#00da63"/></svg>